<svg width="825" height="175" viewBox="0 0 825 175" fill="none" xmlns="http://www.w3.org/2000/svg">
<path d="M171.445 1.31331C173.445 3.31331 173.445 3.31331 173.824 7.23128C173.683 13.1719 171.591 18.1769 169.382 23.6258C168.543 25.7762 167.706 27.9272 166.871 30.0789C166.247 31.6693 166.247 31.6693 165.611 33.2918C164.004 37.4554 162.522 41.6562 161.07 45.8758C160.512 47.4879 159.953 49.0999 159.394 50.7118C159.093 51.5803 158.792 52.4488 158.482 53.3436C156.308 59.5717 154.091 65.785 151.882 72.0008C150.929 74.6844 149.976 77.368 149.023 80.0516C148.796 80.6911 148.569 81.3307 148.335 81.9896C146.595 86.8873 144.861 91.7869 143.132 96.6883C142.905 97.332 142.677 97.9758 142.443 98.639C141.262 101.984 140.091 105.332 138.929 108.684C137.692 112.25 136.431 115.806 135.148 119.355C134.473 121.236 133.82 123.124 133.168 125.013C132.764 126.102 132.361 127.191 131.945 128.313C131.605 129.262 131.264 130.211 130.914 131.188C129.445 133.313 129.445 133.313 126.91 134.473C121.561 134.226 117.964 131.561 113.507 128.751C112.082 127.883 112.082 127.883 110.627 126.998C105.407 123.814 100.236 120.552 95.0621 117.294C94.0282 116.649 92.9943 116.005 91.9291 115.341C89.9261 114.09 87.9318 112.825 85.9471 111.545C85.0376 110.976 84.1281 110.407 83.191 109.821C82.3937 109.312 81.5963 108.803 80.7748 108.279C77.8535 107.068 76.4192 107.34 73.4449 108.313C71.3381 109.756 69.4097 111.2 67.4449 112.813C66.3008 113.718 65.1549 114.62 64.0074 115.52C63.4222 115.981 62.837 116.442 62.234 116.917C59.3456 119.171 56.4172 121.359 53.4449 123.501C51.8981 124.636 51.8981 124.636 50.3199 125.794C46.9678 127.566 45.9851 127.221 42.4449 126.313C42.5497 125.291 42.6544 124.268 42.7623 123.215C45.1704 104.82 45.1704 104.82 40.7721 87.5096C36.3315 83.178 30.9383 80.8119 25.2428 78.5125C20.6897 76.561 16.6205 73.8945 12.4449 71.2508C11.3256 70.5865 11.3256 70.5865 10.1837 69.9088C6.50683 67.7246 3.1753 65.6791 0.444946 62.3133C-0.267613 57.3254 -0.267613 57.3254 1.5177 54.7896C4.30411 52.6552 7.40857 51.7782 10.7184 50.7547C11.7978 50.4091 11.7978 50.4091 12.899 50.0565C15.2033 49.3209 17.5115 48.5983 19.8199 47.8758C21.3345 47.3942 22.8489 46.9118 24.3629 46.4286C32.0547 43.9799 39.7648 41.5924 47.4825 39.2271C52.147 37.7883 56.7961 36.3018 61.4449 34.8133C67.081 33.0088 72.7213 31.2252 78.3824 29.5008C86.5187 27.0044 94.6043 24.3553 102.694 21.7118C105.499 20.7957 108.305 19.882 111.112 18.9691C119.628 16.1973 128.143 13.4188 136.644 10.5999C140.043 9.47367 143.444 8.35391 146.845 7.23495C148.443 6.70743 150.039 6.17671 151.634 5.64266C153.846 4.90246 156.061 4.17318 158.277 3.44613C159.522 3.0325 160.767 2.61887 162.05 2.19271C165.384 1.32913 168.022 0.983045 171.445 1.31331Z" fill="#1A2537"/>
<path d="M372.57 0.0633499C373.47 0.0427249 374.369 0.0220999 375.296 0.000849901C389.192 -0.07901 400.14 5.47333 410.152 14.8641C413.709 18.6636 416.176 22.6477 418.445 27.3134C418.857 28.1203 419.27 28.9273 419.695 29.7587C422.241 35.5401 422.821 40.9525 422.882 47.1884C422.893 47.8948 422.903 48.6012 422.913 49.329C422.726 61.041 418.952 71.3979 413.757 81.7508C413.222 82.8391 412.687 83.9273 412.135 85.0485C404.112 101.217 395.053 116.428 383.445 130.313C382.403 131.628 382.403 131.628 381.339 132.97C380.652 133.805 379.965 134.64 379.257 135.501C378.339 136.636 378.339 136.636 377.402 137.794C375.445 139.313 375.445 139.313 372.988 139.325C355.045 132.187 340.979 98.6094 333.698 82.0179C331.885 77.8052 330.112 73.586 328.445 69.3133C328.148 68.5725 327.85 67.8317 327.544 67.0685C325.371 61.2295 324.902 55.8308 324.945 49.6259C324.951 48.6627 324.956 47.6995 324.962 46.7071C325.331 31.8619 331.02 21.3156 341.632 11.1258C351.058 3.02828 360.492 0.130823 372.57 0.0633499Z" fill="#1B2434"/>
<path d="M388.007 19.8133C395.258 24.0139 400.67 29.7962 403.781 37.6415C406.054 46.786 405.235 56.0488 401.183 64.5282C395.627 73.4305 386.975 80.7835 376.98 84.1415C371.71 85.1738 368.465 84.1763 363.882 81.4383C353.688 74.138 344.889 65.1113 342.445 52.3133C341.392 43.4373 344.237 36.1049 349.382 28.9383C351.81 25.9235 354.203 23.4748 357.445 21.3133C357.949 20.9421 358.453 20.5708 358.972 20.1883C367.406 14.8736 379.259 15.7859 388.007 19.8133Z" fill="#F6F9FA"/>
<path d="M614.445 96.3134C620.13 101.392 624.073 106.245 624.781 113.985C624.953 121.763 624.825 128.606 620.445 135.313C620.083 135.884 619.72 136.455 619.347 137.044C615.602 142.185 610.291 144.365 604.445 146.313C598.631 146.779 593.732 145.661 588.445 143.313C587.785 142.653 587.125 141.993 586.445 141.313C586.115 150.223 585.785 159.133 585.445 168.313C580.825 168.313 576.205 168.313 571.445 168.313C571.445 143.563 571.445 118.813 571.445 93.3134C575.735 93.3134 580.025 93.3134 584.445 93.3134C585.105 94.6334 585.765 95.9534 586.445 97.3134C587.352 96.674 588.26 96.0346 589.195 95.3759C597.31 90.2261 606.391 91.522 614.445 96.3134Z" fill="#1D2535"/>
<path d="M632.445 69.3134C666.499 69.3134 666.499 69.3134 675.882 75.6259C682.503 82.5695 683.9 89.0912 683.726 98.4696C683.357 103.515 682.139 107.076 679.445 111.313C678.424 112.922 678.424 112.922 677.382 114.563C672.593 119.727 666.126 122.312 659.172 122.622C655.241 122.701 651.39 122.482 647.445 122.313C647.445 129.573 647.445 136.833 647.445 144.313C642.495 144.313 637.545 144.313 632.445 144.313C632.445 119.563 632.445 94.8134 632.445 69.3134Z" fill="#067EF3"/>
<path d="M152.445 27.3134C153.661 30.9604 152.596 33.658 151.318 36.8939C151.113 37.4136 150.902 37.9472 150.695 38.5009L149.89 40.7137C148.841 43.5881 122.533 115.454 121.445 118.313C118.005 117.005 114.831 115.506 111.629 113.696L108.84 112.123L105.882 110.438L102.833 108.703C99.7003 106.912 96.5721 105.114 93.4449 103.313L90.4147 101.577C87.6043 99.9607 84.8043 98.3279 82.0074 96.6884L79.39 95.1849L77.0114 93.7743L74.9159 92.5492L73.4449 91.3134C73.4449 89.52 73.4449 88.7987 73.7308 88.2182C73.9232 87.8276 74.245 87.5007 74.7833 86.954L76.6715 85.5634L78.7767 83.9874L81.0699 82.3134C82.6474 81.1358 84.2242 79.9574 85.8004 78.7782L88.1925 77.0004C91.2963 74.6757 94.3433 72.284 97.3824 69.8759C109.994 59.9246 122.701 50.0952 135.445 40.3134C136.627 39.4034 137.81 38.4932 138.992 37.5829L140.774 36.2108L145.668 32.4423C147.917 30.7184 150.173 29.0074 152.445 27.3134Z" fill="#0481F6"/>
<path d="M778.445 96.3134C783.412 100.284 787.053 104.365 789.445 110.313C789.731 113.041 789.876 115.474 789.82 118.188C789.809 118.897 789.798 119.606 789.787 120.337C789.563 127.676 788.319 132.531 783.32 138.063C777.142 143.809 769.05 146.703 760.648 146.517C752.079 145.727 746.095 141.677 740.445 135.313C735.819 128.151 734.478 121.399 735.8 113.075C737.845 105.349 743.139 99.0105 749.871 94.7939C759.352 90.5145 769.493 91.0076 778.445 96.3134Z" fill="#0883F2"/>
<path d="M179.445 130.313C184.276 134.071 184.276 134.071 184.781 137.786C184.253 141.76 182.037 142.932 179.035 145.364C153.126 164.864 127.082 177.639 93.8942 173.915C76.4996 170.29 62.0847 158.763 52.445 144.313C50.9522 141.707 50.4225 140.775 50.57 137.751C51.6683 134.691 52.5599 133.795 55.445 132.313C58.445 131.813 58.445 131.813 61.445 132.313C63.445 134.313 63.445 134.313 65.445 137.313C73.1933 148.564 82.2294 155.858 95.5075 159.626C120.035 164.093 141.273 153.853 161.246 140.567C165.115 137.841 168.725 134.891 172.261 131.747C174.919 130.002 176.323 129.856 179.445 130.313Z" fill="#1C2435"/>
<path d="M136.445 25.3134C134.616 26.6341 132.788 27.9548 130.959 29.2755C129.347 30.4394 127.736 31.6033 126.124 32.7672C121.96 35.7754 117.794 38.7831 113.629 41.7899C103.215 49.3067 92.8061 56.8278 82.4708 64.4521C80.7963 65.686 79.1202 66.9178 77.4425 68.1474C73.9211 70.7306 70.4112 73.3158 66.9879 76.0282C66.0456 76.7617 65.1033 77.4952 64.1324 78.2509C63.3526 78.8787 62.5727 79.5064 61.7692 80.1532C58.4806 81.7948 56.95 81.3794 53.4449 80.3134C50.6513 78.9578 48.0246 77.379 45.3824 75.7509C44.6445 75.3063 43.9066 74.8618 43.1464 74.4037C40.9062 73.0504 38.6748 71.6836 36.4449 70.3134C35.1117 69.4994 33.7784 68.6856 32.4449 67.872C29.4372 66.0316 26.4384 64.1771 23.4449 62.3134C23.7749 61.3234 24.1049 60.3334 24.4449 59.3134C26.4318 58.4096 26.4318 58.4096 29.0465 57.6649C30.0133 57.3814 30.9801 57.0978 31.9762 56.8056C32.9971 56.5194 34.0181 56.2332 35.0699 55.9384C37.042 55.3704 39.0133 54.8001 40.984 54.2274C42.0288 53.9239 43.0736 53.6203 44.15 53.3075C48.2169 52.0805 52.2385 50.7348 56.2632 49.3767C61.6858 47.5526 67.1312 45.806 72.5856 44.079C73.478 43.7963 74.3703 43.5136 75.2898 43.2223C78.0913 42.3354 80.8931 41.4493 83.6949 40.5634C99.492 35.5781 99.492 35.5781 115.214 30.3642C116.176 30.0378 116.176 30.0378 117.157 29.7049C120.047 28.7213 122.934 27.7262 125.815 26.7148C126.798 26.3773 127.78 26.0399 128.793 25.6923C129.628 25.3991 130.463 25.1059 131.324 24.8039C133.445 24.3134 133.445 24.3134 136.445 25.3134Z" fill="#0182F1"/>
<path d="M445.445 69.3134C465.905 69.3134 486.365 69.3134 507.445 69.3134C507.445 73.6034 507.445 77.8934 507.445 82.3134C499.525 82.3134 491.605 82.3134 483.445 82.3134C483.445 102.773 483.445 123.233 483.445 144.313C478.825 144.313 474.205 144.313 469.445 144.313C469.445 123.853 469.445 103.393 469.445 82.3134C461.525 82.3134 453.605 82.3134 445.445 82.3134C445.445 78.0234 445.445 73.7334 445.445 69.3134Z" fill="#1A2235"/>
<path d="M298.927 64.9427C300.97 64.9383 303.012 64.9016 305.054 64.8641C306.349 64.8603 307.643 64.8564 308.976 64.8524C310.147 64.8442 311.318 64.836 312.525 64.8275C315.445 65.3134 315.445 65.3134 317.33 67.1156C318.936 70.2817 318.768 72.8228 318.445 76.3134C315.7 79.058 314.124 78.5667 310.285 78.5868C308.394 78.6133 308.394 78.6133 306.465 78.6403C305.464 78.6508 305.464 78.6508 304.444 78.6616C278.79 78.9947 255.951 85.9761 234.445 100.313C230.894 100.222 229.67 99.5262 227.07 97.0634C225.445 94.3134 225.445 94.3134 225.437 91.911C226.89 88.1653 229.581 86.8685 232.945 85.0009C233.613 84.6177 234.281 84.2345 234.969 83.8397C255.197 72.4387 275.46 64.937 298.927 64.9427Z" fill="#1C2434"/>
<path d="M800.445 79.3134C805.065 79.3134 809.685 79.3134 814.445 79.3134C814.445 84.2634 814.445 89.2134 814.445 94.3134C817.745 94.3134 821.045 94.3134 824.445 94.3134C824.445 98.2734 824.445 102.233 824.445 106.313C821.145 106.313 817.845 106.313 814.445 106.313C814.583 110.459 814.732 114.605 814.882 118.751C814.922 119.935 814.961 121.119 815.002 122.339C815.043 123.463 815.085 124.588 815.129 125.747C815.165 126.789 815.202 127.831 815.24 128.905C815.18 131.263 815.18 131.263 816.445 132.313C817.792 132.544 819.149 132.725 820.507 132.876C821.807 133.02 823.106 133.165 824.445 133.313C824.445 137.273 824.445 141.233 824.445 145.313C811.832 145.935 811.832 145.935 806.82 143.688C803.246 140.115 800.685 137.08 799.991 131.97C800.012 130.787 800.033 129.603 800.054 128.384C800.067 127.095 800.08 125.806 800.093 124.477C800.127 123.131 800.161 121.785 800.195 120.438C800.215 119.069 800.233 117.699 800.25 116.329C800.297 112.99 800.362 109.652 800.445 106.313C797.805 106.313 795.165 106.313 792.445 106.313C792.445 102.353 792.445 98.3934 792.445 94.3134C795.085 94.3134 797.725 94.3134 800.445 94.3134C800.445 89.3634 800.445 84.4134 800.445 79.3134Z" fill="#0482F5"/>
<path d="M211.648 95.8914C216.795 98.4415 220.174 103.185 222.445 108.313C223.642 114.226 222.699 119.35 219.711 124.559C216.317 129.262 212.149 132.058 206.445 133.313C200.167 133.921 195.553 133.181 190.445 129.313C185.709 124.638 184.047 120.253 183.82 113.626C184.133 107.505 185.44 104.111 189.976 99.8875C196.299 94.3858 203.506 93.7548 211.648 95.8914Z" fill="#0481F6"/>
<path d="M383.589 31.2039C387.964 33.8193 390.6 37.6601 392.882 42.1258C394.024 48.5954 393.651 54.1984 389.82 59.6883C385.912 64.2418 382.591 66.9068 376.543 67.6883C371.778 67.8768 368.354 67.743 364.007 65.6883C358.499 60.5827 354.827 56.1945 354.07 48.5008C354.248 42.9352 356.333 38.5257 360.164 34.5125C367.087 28.367 375.031 27.5822 383.589 31.2039Z" fill="#0683F5"/>
<path d="M715.445 67.3134C719.735 67.3134 724.025 67.3134 728.445 67.3134C728.445 92.7234 728.445 118.133 728.445 144.313C724.155 144.313 719.865 144.313 715.445 144.313C715.445 118.903 715.445 93.4934 715.445 67.3134Z" fill="#017DF2"/>
<path d="M536.445 92.3135C539.507 93.8135 539.507 93.8135 541.445 95.3135C540.78 99.7024 539.257 103.295 537.445 107.313C536.72 107.195 535.996 107.076 535.25 106.954C528.756 105.916 528.756 105.916 522.82 108.126C519.887 110.827 519.498 111.502 519.24 115.478C519.198 116.821 519.161 118.165 519.129 119.509C519.108 120.216 519.087 120.924 519.066 121.653C519 123.914 518.941 126.176 518.882 128.438C518.839 129.971 518.796 131.504 518.752 133.036C518.644 136.795 518.545 140.554 518.445 144.313C513.825 144.313 509.205 144.313 504.445 144.313C504.445 127.813 504.445 111.313 504.445 94.3135C508.735 94.3135 513.025 94.3135 517.445 94.3135C517.445 96.2935 517.445 98.2735 517.445 100.313C518.105 100.313 518.765 100.313 519.445 100.313C519.651 99.736 519.857 99.1585 520.07 98.5635C523.885 92.3205 529.685 91.2324 536.445 92.3135Z" fill="#1B2333"/>
<path d="M547.445 93.3134C552.065 93.3134 556.685 93.3134 561.445 93.3134C561.445 110.143 561.445 126.973 561.445 144.313C556.825 144.313 552.205 144.313 547.445 144.313C547.445 127.483 547.445 110.653 547.445 93.3134Z" fill="#182133"/>
<path d="M690.445 94.3134C695.065 94.3134 699.685 94.3134 704.445 94.3134C704.445 110.813 704.445 127.313 704.445 144.313C699.825 144.313 695.205 144.313 690.445 144.313C690.445 127.813 690.445 111.313 690.445 94.3134Z" fill="#0580F2"/>
<path d="M600.445 105.313C605.087 107.01 608.072 108.933 610.445 113.313C611.243 118.65 611.114 122.925 608.757 127.813C605.1 131.767 602.93 133.148 597.507 133.751C593.257 133.59 590.721 132.043 587.445 129.313C584.054 124.227 584.758 118.244 585.445 112.313C588.568 105.718 593.627 104.614 600.445 105.313Z" fill="#F7F8F8"/>
<path d="M767.445 105.313C771.527 107.392 773.789 109.062 775.445 113.313C776.062 117.976 776.539 123.029 774.465 127.36C772.206 130.168 769.758 131.993 766.445 133.313C762.329 133.635 758.072 133.576 754.718 130.974C749.967 125.291 749.875 120.469 750.445 113.313C751.737 110.051 752.931 108.752 755.57 106.501C759.609 104.833 763.136 104.623 767.445 105.313Z" fill="#F5FBFC"/>
<path d="M646.445 82.3134C661.545 82.3134 661.545 82.3134 665.445 85.3134C669.158 89.4174 670.084 92.7509 669.839 98.1298C669.223 101.542 667.667 103.711 665.445 106.313C661.65 108.843 658.633 108.537 654.257 108.438C650.39 108.376 650.39 108.376 646.445 108.313C646.445 99.7334 646.445 91.1534 646.445 82.3134Z" fill="#F8FBFC"/>
<path d="M696.882 65.6884C701.666 66.5276 703.214 67.6885 706.445 71.3134C707.07 74.3134 707.07 74.3134 706.445 77.3134C704.645 80.0133 703.361 81.8552 700.445 83.3134C697.132 83.7509 697.132 83.7509 693.445 83.3134C690.222 80.4329 688.688 78.5042 687.82 74.2509C688.945 68.9625 691.624 66.6444 696.882 65.6884Z" fill="#0985F1"/>
<path d="M553.945 65.7509C558.094 66.4176 559.764 67.0635 562.445 70.3134C563.237 75.3024 563.249 77.1442 560.382 81.3134C557.445 83.3134 557.445 83.3134 553.945 84.0009C550.445 83.3134 550.445 83.3134 547.507 80.6884C545.257 77.0054 544.551 75.5164 545.445 71.3134C548.059 67.6693 549.487 66.4673 553.945 65.7509Z" fill="#1D2433"/>
</svg>
