<svg width="1024" height="1024" viewBox="0 0 1024 1024" fill="none" xmlns="http://www.w3.org/2000/svg">
<path d="M279 390C281 392 281 392 281.379 395.918C281.238 401.859 279.146 406.864 276.938 412.312C276.098 414.463 275.261 416.614 274.426 418.766C273.802 420.356 273.802 420.356 273.167 421.978C271.559 426.142 270.078 430.343 268.625 434.562C268.067 436.175 267.508 437.787 266.949 439.398C266.648 440.267 266.347 441.135 266.037 442.03C263.863 448.258 261.646 454.472 259.438 460.687C258.484 463.371 257.531 466.055 256.578 468.738C256.351 469.378 256.124 470.017 255.89 470.676C254.15 475.574 252.416 480.474 250.688 485.375C250.46 486.019 250.232 486.662 249.998 487.326C248.817 490.671 247.646 494.019 246.484 497.371C245.247 500.936 243.986 504.492 242.703 508.041C242.028 509.922 241.375 511.811 240.723 513.699C240.319 514.788 239.916 515.878 239.5 517C239.16 517.949 238.819 518.897 238.469 519.875C237 522 237 522 234.465 523.16C229.116 522.913 225.519 520.248 221.062 517.437C219.637 516.57 219.637 516.57 218.182 515.685C212.962 512.501 207.791 509.239 202.617 505.98C201.583 505.336 200.549 504.692 199.484 504.028C197.481 502.777 195.487 501.512 193.502 500.232C192.593 499.663 191.683 499.094 190.746 498.508C189.949 497.999 189.151 497.49 188.33 496.965C185.409 495.755 183.974 496.027 181 497C178.893 498.443 176.965 499.887 175 501.5C173.856 502.404 172.71 503.307 171.562 504.207C170.977 504.668 170.392 505.129 169.789 505.604C166.901 507.858 163.972 510.046 161 512.187C159.453 513.322 159.453 513.322 157.875 514.48C154.523 516.252 153.54 515.908 150 515C150.105 513.977 150.209 512.955 150.317 511.902C152.725 493.506 152.725 493.506 148.327 476.196C143.887 471.865 138.493 469.499 132.798 467.199C128.245 465.248 124.176 462.581 120 459.937C118.881 459.273 118.881 459.273 117.739 458.595C114.062 456.411 110.73 454.366 108 451C107.287 446.012 107.287 446.012 109.073 443.476C111.859 441.342 114.964 440.465 118.273 439.441C119.353 439.096 119.353 439.096 120.454 438.743C122.758 438.008 125.067 437.285 127.375 436.562C128.89 436.081 130.404 435.598 131.918 435.115C139.61 432.667 147.32 430.279 155.038 427.914C159.702 426.475 164.351 424.988 169 423.5C174.636 421.695 180.276 419.912 185.938 418.187C194.074 415.691 202.159 413.042 210.249 410.398C213.054 409.482 215.86 408.569 218.667 407.656C227.183 404.884 235.698 402.105 244.199 399.287C247.598 398.16 250.999 397.041 254.4 395.922C255.998 395.394 257.594 394.863 259.189 394.329C261.401 393.589 263.616 392.86 265.832 392.133C267.077 391.719 268.322 391.306 269.605 390.879C272.939 390.016 275.577 389.67 279 390Z" fill="#1A2537"/>
<path d="M480.125 388.75C481.025 388.729 481.924 388.709 482.852 388.687C496.747 388.608 507.695 394.16 517.707 403.551C521.264 407.35 523.731 411.334 526 416C526.412 416.807 526.825 417.614 527.25 418.445C529.796 424.227 530.376 429.639 530.437 435.875C530.448 436.581 530.458 437.288 530.468 438.016C530.281 449.728 526.507 460.085 521.312 470.437C520.777 471.526 520.242 472.614 519.69 473.735C511.667 489.903 502.608 505.115 491 519C489.958 520.315 489.958 520.315 488.894 521.656C488.207 522.492 487.52 523.327 486.812 524.188C485.894 525.323 485.894 525.323 484.957 526.48C483 528 483 528 480.543 528.012C462.6 520.873 448.534 487.296 441.253 470.705C439.441 466.492 437.667 462.273 436 458C435.703 457.259 435.405 456.518 435.099 455.755C432.926 449.916 432.457 444.517 432.5 438.312C432.506 437.349 432.511 436.386 432.517 435.394C432.886 420.549 438.576 410.002 449.187 399.812C458.613 391.715 468.047 388.817 480.125 388.75Z" fill="#1B2434"/>
<path d="M495.563 408.5C502.813 412.701 508.225 418.483 511.336 426.328C513.609 435.473 512.79 444.735 508.738 453.215C503.182 462.117 494.53 469.47 484.535 472.828C479.265 473.86 476.02 472.863 471.438 470.125C461.243 462.825 452.444 453.798 450 441C448.947 432.124 451.792 424.792 456.938 417.625C459.365 414.61 461.758 412.161 465 410C465.504 409.629 466.008 409.257 466.527 408.875C474.961 403.56 486.814 404.473 495.563 408.5Z" fill="#F6F9FA"/>
<path d="M722 485C727.685 490.079 731.628 494.932 732.336 502.672C732.508 510.449 732.38 517.293 728 524C727.638 524.571 727.276 525.142 726.902 525.73C723.157 530.872 717.846 533.052 712 535C706.186 535.465 701.287 534.348 696 532C695.34 531.34 694.68 530.68 694 530C693.67 538.91 693.34 547.82 693 557C688.38 557 683.76 557 679 557C679 532.25 679 507.5 679 482C683.29 482 687.58 482 692 482C692.66 483.32 693.32 484.64 694 486C694.908 485.361 695.815 484.721 696.75 484.063C704.865 478.913 713.946 480.209 722 485Z" fill="#1D2535"/>
<path d="M740 458C774.054 458 774.054 458 783.438 464.312C790.058 471.256 791.455 477.778 791.281 487.156C790.912 492.202 789.694 495.763 787 500C785.979 501.609 785.979 501.609 784.938 503.25C780.148 508.414 773.681 510.999 766.727 511.309C762.796 511.388 758.945 511.169 755 511C755 518.26 755 525.52 755 533C750.05 533 745.1 533 740 533C740 508.25 740 483.5 740 458Z" fill="#067EF3"/>
<path d="M260 416C261.411 420.233 259.75 423.187 258.25 427.188C257.984 427.918 257.719 428.648 257.445 429.4C256.396 432.275 255.327 435.141 254.239 438C252.294 443.124 250.529 448.296 248.812 453.5C248.54 454.322 248.267 455.145 247.986 455.992C247.323 457.994 246.661 459.997 246 462C245.34 462 244.68 462 244 462C243.883 462.855 243.765 463.709 243.645 464.59C242.979 468.111 241.943 471.208 240.688 474.562C238.979 479.219 237.403 483.868 236 488.625C234.103 494.947 231.655 500.962 229 507C225.56 505.692 222.386 504.193 219.184 502.383C218.263 501.864 217.343 501.345 216.395 500.81C215.419 500.254 214.443 499.698 213.438 499.125C211.928 498.266 211.928 498.266 210.388 497.389C207.255 495.599 204.127 493.801 201 492C200 491.427 199 490.854 197.97 490.264C195.159 488.647 192.359 487.015 189.562 485.375C188.267 484.631 188.267 484.631 186.945 483.872C186.16 483.406 185.375 482.941 184.566 482.461C183.529 481.855 183.529 481.855 182.471 481.236C181.986 480.828 181.5 480.42 181 480C181 477 181 477 182.338 475.641C183.273 474.952 183.273 474.952 184.227 474.25C185.269 473.47 185.269 473.47 186.332 472.674C187.089 472.122 187.845 471.569 188.625 471C190.202 469.822 191.779 468.644 193.355 467.465C194.145 466.878 194.934 466.291 195.748 465.687C198.851 463.362 201.898 460.971 204.938 458.562C217.55 448.611 230.256 438.782 243 429C244.182 428.09 245.365 427.18 246.547 426.27C247.135 425.817 247.723 425.364 248.329 424.897C249.96 423.641 251.591 422.385 253.223 421.129C255.472 419.405 257.729 417.694 260 416Z" fill="#0080F2"/>
<path d="M886 485C890.967 488.971 894.608 493.051 897 499C897.286 501.728 897.431 504.161 897.375 506.875C897.364 507.584 897.353 508.293 897.342 509.023C897.118 516.363 895.874 521.217 890.875 526.75C884.697 532.495 876.605 535.39 868.203 535.203C859.634 534.413 853.65 530.364 848 524C843.374 516.838 842.034 510.086 843.355 501.762C845.4 494.035 850.694 487.697 857.426 483.481C866.907 479.201 877.048 479.694 886 485Z" fill="#0883F2"/>
<path d="M287 519C291.831 522.758 291.831 522.758 292.336 526.473C291.808 530.447 289.592 531.618 286.59 534.051C260.681 553.551 234.637 566.326 201.449 562.602C184.055 558.977 169.64 547.449 160 533C158.507 530.393 157.978 529.462 158.125 526.438C159.223 523.378 160.115 522.482 163 521C166 520.5 166 520.5 169 521C171 523 171 523 173 526C180.748 537.251 189.784 544.545 203.063 548.313C227.59 552.78 248.828 542.54 268.801 529.254C272.67 526.528 276.28 523.578 279.816 520.434C282.474 518.689 283.878 518.542 287 519Z" fill="#1C2435"/>
<path d="M244 414C242.171 415.321 240.343 416.641 238.514 417.962C236.902 419.126 235.291 420.29 233.679 421.454C229.515 424.462 225.349 427.47 221.184 430.477C210.77 437.993 200.361 445.514 190.026 453.139C188.351 454.373 186.675 455.604 184.998 456.834C181.476 459.417 177.966 462.002 174.543 464.715C173.601 465.448 172.658 466.182 171.688 466.938C170.908 467.565 170.128 468.193 169.324 468.84C166.036 470.481 164.505 470.066 161 469C158.206 467.644 155.58 466.066 152.938 464.438C152.2 463.993 151.462 463.548 150.701 463.09C148.461 461.737 146.23 460.37 144 459C142.667 458.186 141.333 457.372 140 456.559C136.992 454.718 133.993 452.864 131 451C131.33 450.01 131.66 449.02 132 448C133.987 447.096 133.987 447.096 136.602 446.352C137.568 446.068 138.535 445.784 139.531 445.492C140.552 445.206 141.573 444.92 142.625 444.625C144.597 444.057 146.568 443.487 148.539 442.914C149.584 442.611 150.629 442.307 151.705 441.994C155.772 440.767 159.794 439.421 163.818 438.063C169.241 436.239 174.686 434.493 180.141 432.766C181.033 432.483 181.925 432.2 182.845 431.909C185.646 431.022 188.448 430.136 191.25 429.25C207.047 424.265 207.047 424.265 222.77 419.051C223.731 418.724 223.731 418.724 224.712 418.392C227.603 417.408 230.489 416.413 233.37 415.401C234.353 415.064 235.335 414.727 236.348 414.379C237.183 414.086 238.018 413.793 238.879 413.491C241 413 241 413 244 414Z" fill="#0182F1"/>
<path d="M553 458C573.46 458 593.92 458 615 458C615 462.29 615 466.58 615 471C607.08 471 599.16 471 591 471C591 491.46 591 511.92 591 533C586.38 533 581.76 533 577 533C577 512.54 577 492.08 577 471C569.08 471 561.16 471 553 471C553 466.71 553 462.42 553 458Z" fill="#1A2235"/>
<path d="M406.482 453.629C408.526 453.625 410.567 453.588 412.609 453.551C413.904 453.547 415.198 453.543 416.531 453.539C417.702 453.531 418.873 453.523 420.08 453.514C423 454 423 454 424.885 455.802C426.491 458.968 426.323 461.509 426 465C423.255 467.745 421.68 467.253 417.84 467.273C415.949 467.3 415.949 467.3 414.02 467.327C413.019 467.337 413.019 467.337 411.999 467.348C386.345 467.681 363.506 474.663 342 489C338.449 488.909 337.225 488.213 334.625 485.75C333 483 333 483 332.992 480.598C334.445 476.852 337.136 475.555 340.5 473.688C341.168 473.304 341.836 472.921 342.524 472.526C362.752 461.125 383.015 453.624 406.482 453.629Z" fill="#1C2434"/>
<path d="M908 468C912.62 468 917.24 468 922 468C922 472.95 922 477.9 922 483C925.3 483 928.6 483 932 483C932 486.96 932 490.92 932 495C928.7 495 925.4 495 922 495C922.138 499.146 922.287 503.292 922.438 507.438C922.477 508.622 922.516 509.806 922.557 511.025C922.599 512.15 922.64 513.275 922.684 514.434C922.72 515.476 922.757 516.518 922.795 517.592C922.735 519.95 922.735 519.95 924 521C925.347 521.231 926.704 521.412 928.062 521.562C929.362 521.707 930.661 521.851 932 522C932 525.96 932 529.92 932 534C919.388 534.622 919.388 534.622 914.375 532.375C910.801 528.801 908.24 525.766 907.546 520.657C907.567 519.473 907.588 518.29 907.609 517.07C907.622 515.781 907.635 514.492 907.648 513.164C907.682 511.818 907.716 510.471 907.75 509.125C907.77 507.755 907.788 506.385 907.805 505.016C907.852 501.676 907.917 498.339 908 495C905.36 495 902.72 495 900 495C900 491.04 900 487.08 900 483C902.64 483 905.28 483 908 483C908 478.05 908 473.1 908 468Z" fill="#0482F5"/>
<path d="M319.203 484.578C324.35 487.128 327.729 491.871 330 497C331.197 502.912 330.254 508.037 327.266 513.246C323.872 517.948 319.704 520.745 314 522C307.723 522.607 303.108 521.867 298 518C293.265 513.325 291.602 508.94 291.375 502.312C291.689 496.192 292.995 492.798 297.531 488.574C303.854 483.072 311.061 482.441 319.203 484.578Z" fill="#0481F6"/>
<path d="M491.145 419.891C495.519 422.506 498.155 426.347 500.438 430.812C501.579 437.282 501.206 442.885 497.375 448.375C493.467 452.928 490.146 455.593 484.098 456.375C479.333 456.563 475.909 456.43 471.562 454.375C466.054 449.269 462.382 444.881 461.625 437.187C461.803 431.622 463.888 427.212 467.719 423.199C474.642 417.054 482.586 416.269 491.145 419.891Z" fill="#0683F5"/>
<path d="M823 456C827.29 456 831.58 456 836 456C836 481.41 836 506.82 836 533C831.71 533 827.42 533 823 533C823 507.59 823 482.18 823 456Z" fill="#017DF2"/>
<path d="M644 481C647.062 482.5 647.062 482.5 649 484C648.335 488.389 646.812 491.981 645 496C644.276 495.882 643.551 495.763 642.805 495.641C636.311 494.602 636.311 494.602 630.375 496.813C627.442 499.514 627.053 500.188 626.795 504.165C626.753 505.508 626.716 506.852 626.684 508.195C626.663 508.903 626.642 509.61 626.621 510.339C626.555 512.601 626.496 514.863 626.438 517.125C626.394 518.658 626.351 520.19 626.307 521.723C626.199 525.482 626.1 529.241 626 533C621.38 533 616.76 533 612 533C612 516.5 612 500 612 483C616.29 483 620.58 483 625 483C625 484.98 625 486.96 625 489C625.66 489 626.32 489 627 489C627.206 488.423 627.412 487.845 627.625 487.25C631.44 481.007 637.24 479.919 644 481Z" fill="#1B2333"/>
<path d="M655 482C659.62 482 664.24 482 669 482C669 498.83 669 515.66 669 533C664.38 533 659.76 533 655 533C655 516.17 655 499.34 655 482Z" fill="#182133"/>
<path d="M798 483C802.62 483 807.24 483 812 483C812 499.5 812 516 812 533C807.38 533 802.76 533 798 533C798 516.5 798 500 798 483Z" fill="#0580F2"/>
<path d="M708 494C712.642 495.696 715.627 497.62 718 502C718.798 507.336 718.669 511.612 716.312 516.5C712.655 520.454 710.485 521.835 705.062 522.438C700.812 522.277 698.276 520.73 695 518C691.609 512.914 692.313 506.93 693 501C696.123 494.405 701.182 493.3 708 494Z" fill="#F7F8F8"/>
<path d="M875 494C879.082 496.078 881.344 497.749 883 502C883.617 506.662 884.094 511.716 882.02 516.047C879.761 518.854 877.313 520.68 874 522C869.884 522.321 865.627 522.263 862.274 519.66C857.522 513.978 857.431 509.156 858 502C859.292 498.737 860.487 497.438 863.125 495.188C867.164 493.519 870.691 493.31 875 494Z" fill="#F5FBFC"/>
<path d="M754 471C769.1 471 769.1 471 773 474C776.713 478.104 777.639 481.438 777.395 486.816C776.778 490.229 775.222 492.397 773 495C769.205 497.53 766.188 497.224 761.812 497.125C757.945 497.063 757.945 497.063 754 497C754 488.42 754 479.84 754 471Z" fill="#F8FBFC"/>
<path d="M804.438 454.375C809.221 455.214 810.769 456.375 814 460C814.625 463 814.625 463 814 466C812.2 468.7 810.916 470.542 808 472C804.688 472.438 804.688 472.438 801 472C797.777 469.119 796.243 467.191 795.375 462.938C796.5 457.649 799.179 455.331 804.438 454.375Z" fill="#0985F1"/>
<path d="M661.5 454.438C665.649 455.104 667.319 455.75 670 459C670.792 463.989 670.804 465.831 667.938 470C665 472 665 472 661.5 472.688C658 472 658 472 655.063 469.375C652.812 465.692 652.106 464.203 653 460C655.614 456.356 657.042 455.154 661.5 454.438Z" fill="#1D2433"/>
<path d="M908 468C912.62 468 917.24 468 922 468C922 472.95 922 477.9 922 483C925.3 483 928.6 483 932 483C932 486.96 932 490.92 932 495C928.7 495 925.4 495 922 495C922 503.25 922 511.5 922 520C921.34 519.67 920.68 519.34 920 519C919.971 514.854 919.953 510.708 919.938 506.562C919.929 505.378 919.921 504.194 919.912 502.975C919.909 501.85 919.906 500.725 919.902 499.566C919.894 498.003 919.894 498.003 919.886 496.408C920 494 920 494 921 493C924.003 492.858 926.992 492.958 930 493C930 490.03 930 487.06 930 484C927.03 484 924.06 484 921 484C921 479.05 921 474.1 921 469C917.04 469 913.08 469 909 469C909 473.62 909 478.24 909 483C908.67 483 908.34 483 908 483C908 478.05 908 473.1 908 468Z" fill="#248FE4"/>
<path d="M655 482C659.62 482 664.24 482 669 482C669 498.83 669 515.66 669 533C668.34 533 667.68 533 667 533C667 516.83 667 500.66 667 484C663.37 484 659.74 484 656 484C655.67 485.32 655.34 486.64 655 488C655 486.02 655 484.04 655 482Z" fill="#3C414D"/>
<path d="M754 471C758.29 471 762.58 471 767 471C767 471.33 767 471.66 767 472C763.04 472 759.08 472 755 472C755.66 479.59 756.32 487.18 757 495C767.075 496.002 767.075 496.002 771.062 493C771.702 492.34 772.341 491.68 773 491C773.66 491 774.32 491 775 491C773.63 494.161 773.011 494.993 770 497C767.225 497.143 764.58 497.187 761.812 497.125C757.945 497.063 757.945 497.063 754 497C754 488.42 754 479.84 754 471Z" fill="#B4E0F3"/>
<path d="M244 414C237.746 419.879 237.746 419.879 233.465 420.176C231.26 419.907 229.152 419.548 227 419C229.842 417.105 232.316 415.998 235.5 414.812C236.459 414.448 237.418 414.083 238.406 413.707C241 413 241 413 244 414Z" fill="#0680D5"/>
<path d="M553 458C554.98 458 556.96 458 559 458C558.01 458.33 557.02 458.66 556 459C555.67 462.63 555.34 466.26 555 470C555.99 470.33 556.98 470.66 558 471C556.35 471 554.7 471 553 471C553 466.71 553 462.42 553 458Z" fill="#2D3143"/>
<path d="M859 484C859 484.66 859 485.32 859 486C858.01 486 857.02 486 856 486C855.732 486.598 855.464 487.196 855.188 487.812C854.001 489.998 852.904 491.413 851 493C850.34 493 849.68 493 849 493C848.34 494.32 847.68 495.64 847 497C847 493.281 847.874 492.639 850.312 489.938C851.235 488.899 851.235 488.899 852.176 487.84C855.983 484 855.983 484 859 484Z" fill="#1C89E4"/>
<path d="M155 443C149.027 446.475 144.885 447.574 138 447C140.778 445.554 143.545 444.35 146.5 443.313C147.253 443.041 148.006 442.769 148.781 442.488C151.236 441.948 152.644 442.202 155 443Z" fill="#0879CE"/>
<path d="M230 439C230 442 230 442 227.875 444.562C224.921 447.067 222.716 448.049 219 449C222.494 445.404 226.111 442.165 230 439Z" fill="#0B76CB"/>
<path d="M808 455C808 455.33 808 455.66 808 456C807.093 456.083 806.185 456.165 805.25 456.25C801.513 457.113 800.28 457.961 798 461C797.203 463.642 797.203 463.642 797 466C796.67 466 796.34 466 796 466C795.538 462.024 795.69 460.432 798.063 457.125C801.65 454.53 803.668 454.575 808 455Z" fill="#3D9BE3"/>
<path d="M326 492C328.512 494.403 329.95 495.783 330.098 499.383C330.086 500.288 330.074 501.193 330.062 502.125C330.053 503.035 330.044 503.945 330.035 504.883C330.024 505.581 330.012 506.28 330 507C329.67 507 329.34 507 329 507C329 504.36 329 501.72 329 499C328.34 499 327.68 499 327 499C326.67 496.69 326.34 494.38 326 492Z" fill="#2699E9"/>
<path d="M189 472C187.951 474.622 187.351 475.794 184.875 477.25C184.256 477.498 183.637 477.745 183 478C183 478.66 183 479.32 183 480C182.34 480 181.68 480 181 480C181 479.01 181 478.02 181 477C186.349 472 186.349 472 189 472Z" fill="#0B77CC"/>
<path d="M169 521C169 521.66 169 522.32 169 523C166.69 523 164.38 523 162 523C161.67 523.99 161.34 524.98 161 526C160.34 525.34 159.68 524.68 159 524C162.318 520.937 164.552 520.697 169 521Z" fill="#3A3F4B"/>
<path d="M300 486C300.66 486.33 301.32 486.66 302 487C301.049 488.173 300.089 489.338 299.125 490.5C298.591 491.15 298.058 491.799 297.508 492.469C297.01 492.974 296.513 493.479 296 494C295.34 494 294.68 494 294 494C295.443 490.634 297.333 488.49 300 486Z" fill="#1C8BE6"/>
<path d="M244 414C242.096 415.904 240.666 416.935 237.953 417.199C235.968 417.189 233.983 417.099 232 417C236.021 414.319 239.26 412.42 244 414Z" fill="#0D5F9D"/>
<path d="M449 400C449 404.316 446.867 405.928 444 409C443.34 409 442.68 409 442 409C443.555 405.183 446.036 402.808 449 400Z" fill="#313943"/>
<path d="M775 491C773.902 493.993 773.323 494.846 770.375 496.25C769.591 496.498 768.808 496.745 768 497C769.184 493.449 771.006 491 775 491Z" fill="#D5F0F8"/>
<path d="M239 432C239.66 432.33 240.32 432.66 241 433C239.35 434.65 237.7 436.3 236 438C235.34 437.34 234.68 436.68 234 436C235.65 434.68 237.3 433.36 239 432Z" fill="#0B7AD6"/>
<path d="M260 416C261.208 419.623 260.543 420.641 259 424C258.67 423.01 258.34 422.02 258 421C257.01 420.67 256.02 420.34 255 420C256.65 418.68 258.3 417.36 260 416Z" fill="#1470BC"/>
</svg>
