<svg width="1024" height="1024" viewBox="0 0 1024 1024" fill="none" xmlns="http://www.w3.org/2000/svg">
<path d="M443.625 340.437C446.007 344.877 445.539 349.674 444.419 354.508C443.618 357.138 442.737 359.723 441.812 362.312C441.521 363.173 441.229 364.033 440.928 364.92C439.366 369.444 437.651 373.86 435.754 378.254C432.137 386.825 429.228 395.654 426.214 404.45C424.345 409.899 422.464 415.344 420.582 420.789C420.2 421.894 419.819 422.998 419.426 424.136C414.209 439.21 408.814 454.219 403.424 469.231C401.388 474.904 399.376 480.585 397.374 486.269C395.241 492.324 393.092 498.373 390.941 504.422C389.85 507.493 388.759 510.565 387.669 513.637C386.934 515.705 386.198 517.774 385.462 519.842C384.37 522.909 383.28 525.978 382.191 529.047C381.836 530.043 381.482 531.039 381.116 532.065C379.359 537.027 377.664 541.997 376.082 547.018C375.776 547.975 375.471 548.933 375.157 549.92C374.589 551.718 374.033 553.521 373.493 555.328C371.887 560.395 370.237 563.531 366 567C362.821 568.589 360.533 568.343 357 568C353.971 566.632 351.304 564.806 348.563 562.937C346.874 561.83 345.186 560.723 343.496 559.617C342.16 558.733 342.16 558.733 340.796 557.831C335.956 554.662 331.038 551.618 326.125 548.562C324.09 547.292 322.055 546.021 320.02 544.75C313.421 540.636 306.819 536.527 300.196 532.453C296.429 530.135 292.678 527.806 288.98 525.379C288.383 524.993 287.786 524.607 287.171 524.209C285.638 523.215 284.115 522.206 282.594 521.195C279.442 519.743 278.231 519.818 275 521C272.689 522.353 272.689 522.353 270.375 524.187C269.416 524.908 268.457 525.629 267.469 526.371C266.926 526.783 266.383 527.196 265.824 527.621C259.755 532.21 253.604 536.693 247.466 541.191C245.835 542.388 244.205 543.587 242.577 544.79C240.288 546.475 237.99 548.146 235.688 549.812C235.001 550.322 234.314 550.831 233.607 551.356C229.813 554.077 226.835 555.907 222 556C220 554 220 554 219.757 552.074C219.761 551.287 219.765 550.499 219.77 549.687C219.771 548.34 219.771 548.34 219.773 546.966C219.793 545.498 219.793 545.498 219.813 544C219.82 542.986 219.827 541.973 219.834 540.928C220.002 524.621 220.455 508.242 222 492C221.477 491.754 220.953 491.508 220.414 491.254C217.302 489.637 214.344 487.8 211.375 485.937C210.691 485.509 210.007 485.081 209.303 484.639C199.255 478.308 189.336 471.778 179.417 465.248C176.551 463.361 173.679 461.482 170.806 459.606C168.054 457.806 165.309 455.996 162.563 454.187C161.544 453.524 160.526 452.861 159.477 452.177C158.537 451.555 157.597 450.934 156.629 450.293C155.805 449.752 154.98 449.211 154.131 448.653C151.166 446.353 149.258 444.322 148.531 440.598C148.477 436.183 148.467 433.759 151.063 430.062C155.854 426.698 160.629 425.09 166.172 423.418C172.639 421.438 179.079 419.38 185.516 417.305C186.591 416.958 187.666 416.611 188.774 416.254C191.066 415.515 193.358 414.776 195.649 414.036C216.515 407.306 237.4 400.645 258.313 394.062C283.997 385.976 309.63 377.735 335.255 369.464C347.935 365.373 360.623 361.309 373.313 357.25C374.816 356.769 374.816 356.769 376.351 356.278C384.913 353.539 393.475 350.801 402.043 348.08C403.036 347.765 404.028 347.449 405.05 347.125C406.932 346.527 408.814 345.93 410.696 345.334C415.564 343.788 420.411 342.196 425.25 340.562C431.43 338.691 437.723 337.205 443.625 340.437Z" fill="#1B2433"/>
<path d="M838.406 362.613C849.379 370.708 857.478 380.085 864 392C864.494 392.889 864.987 393.779 865.496 394.695C874.872 412.445 875.909 435.866 871.219 455.234C857.676 497.079 830.808 537.414 803.271 571.43C802.085 572.895 800.911 574.369 799.738 575.844C799.061 576.658 798.385 577.473 797.687 578.312C797.114 579.01 796.54 579.707 795.949 580.426C793.256 582.601 791.451 583.004 788 583C785.684 581.289 785.684 581.289 783.437 578.625C783.02 578.135 782.602 577.646 782.171 577.141C780.751 575.45 779.372 573.731 778 572C777.495 571.366 776.99 570.733 776.47 570.08C772.55 565.124 768.757 560.08 765 555C764.254 553.999 764.254 553.999 763.492 552.978C754.042 540.237 745.972 526.7 738 513C737.528 512.194 737.056 511.389 736.57 510.559C731.002 501.007 726.028 491.188 721.187 481.25C720.648 480.149 720.108 479.049 719.552 477.915C715.808 470.116 712.695 462.22 710 454C709.756 453.273 709.512 452.545 709.26 451.796C707.458 445.686 707.616 439.373 707.625 433.062C707.627 431.868 707.628 430.673 707.63 429.442C707.806 416.611 709.812 404.402 716 393C716.686 391.641 716.686 391.641 717.387 390.254C726.27 373.714 739.882 362.683 756.625 354.625C757.627 354.142 757.627 354.142 758.649 353.649C784.963 341.6 814.967 346.898 838.406 362.613Z" fill="#1C2330"/>
<path d="M824.141 391.738C834.323 401.099 841.434 413.694 842.129 427.574C842.463 443.568 836.766 456.267 826 468C825.237 468.856 824.474 469.712 823.687 470.594C815.55 479.266 803.059 489.385 790.98 491.324C779.383 491.26 767.515 480.483 759.652 472.758C745.717 458.269 738.543 444.083 738.723 423.785C739.125 418.299 740.593 413.912 743 409C743.401 408.171 743.802 407.342 744.215 406.488C751.43 393.166 762.456 384.769 776.656 380.133C794.078 376.003 810.442 380.615 824.141 391.738Z" fill="#F9FBFB"/>
<path d="M410 383C406.535 394.974 402.707 406.905 398 418.453C397.649 419.314 397.299 420.175 396.938 421.062C396.617 421.837 396.296 422.612 395.965 423.41C394.928 426.075 394.928 426.075 394.121 429.207C392.757 433.822 390.962 438.181 389.125 442.625C386.363 449.406 383.9 456.123 381.848 463.152C380.235 468.569 378.189 473.829 376.206 479.119C372.87 488.031 369.574 496.9 366.922 506.043C365.995 509.015 364.937 511.903 363.83 514.812C362.949 517.133 362.095 519.464 361.246 521.797C360.949 522.61 360.652 523.424 360.346 524.262C359.735 525.936 359.125 527.61 358.518 529.285C358.222 530.093 357.926 530.902 357.621 531.734C357.357 532.459 357.094 533.183 356.822 533.929C355.992 536.021 355.036 538.003 354 540C351.831 539.494 350 539 348 538C348 537.34 348 536.68 348 536C346.939 535.848 346.939 535.848 345.857 535.694C342.577 534.897 340.196 533.604 337.281 531.902C335.646 530.954 335.646 530.954 333.978 529.986C332.818 529.303 331.659 528.621 330.5 527.938C329.307 527.241 328.114 526.545 326.921 525.85C320.358 522.017 313.84 518.123 307.398 514.09C302.597 511.137 297.733 508.294 292.875 505.438C280.456 498.113 280.456 498.113 275.125 494.812C274.303 494.303 273.48 493.794 272.633 493.27C271.825 492.641 271.825 492.641 271 492C271 491.34 271 490.68 271 490C272.904 488.399 274.812 486.911 276.812 485.438C278.018 484.531 279.222 483.624 280.426 482.715C281.031 482.258 281.637 481.802 282.26 481.332C284.723 479.447 287.112 477.479 289.5 475.5C294.367 471.487 299.341 467.629 304.352 463.797C308.564 460.574 312.751 457.319 316.938 454.062C317.709 453.462 318.481 452.862 319.276 452.243C324.422 448.236 329.555 444.212 334.68 440.177C343.201 433.475 351.771 426.838 360.332 420.188C367.901 414.308 375.468 408.427 383 402.5C384.109 401.629 385.219 400.758 386.328 399.887C388.328 398.317 390.324 396.743 392.318 395.167C394.792 393.211 397.271 391.261 399.75 389.312C400.538 388.687 401.325 388.062 402.137 387.418C402.87 386.843 403.604 386.268 404.359 385.676C405.014 385.159 405.668 384.643 406.343 384.111C408 383 408 383 410 383Z" fill="#0085EC"/>
<path d="M454.984 556.035C459.788 558.335 463.047 562.693 466 567C467.188 570.563 467.188 570.563 466 574C463.103 577.521 459.597 580.235 456 583C455.345 583.51 454.691 584.019 454.016 584.544C413.214 616.071 368.865 639.061 316.041 633.7C311.187 632.944 306.637 631.64 302 630C301.355 629.775 300.71 629.55 300.045 629.318C275.239 620.516 254.991 605.3 241 583C240.176 581.691 240.176 581.691 239.336 580.355C235.379 573.691 235.379 573.691 236 569C237.391 567.27 237.391 567.27 239.25 565.813C239.853 565.324 240.457 564.835 241.078 564.332C244.348 562.066 246.979 560.704 251 560.625C251.66 560.597 252.32 560.568 253 560.539C256.783 561.411 258.591 564.394 260.676 567.48C261.216 568.374 261.756 569.267 262.313 570.188C267.601 578.637 273.129 585.824 281 592C281.727 592.575 282.454 593.15 283.203 593.742C302.524 608.137 325.907 613.023 349.647 609.621C385.291 602.822 415.22 583.627 443.145 561.277C444.087 560.526 445.029 559.774 446 559C446.722 558.41 447.444 557.819 448.188 557.211C450.49 555.673 452.274 555.511 454.984 556.035Z" fill="#1C2330"/>
<path d="M381 378C373.15 384.144 365.175 390.084 357.079 395.899C351.522 399.892 346.002 403.932 340.5 408C334.36 412.538 328.196 417.04 322 421.5C309.128 430.77 296.376 440.198 283.707 449.742C278.963 453.305 274.158 456.773 269.31 460.192C266.066 462.491 262.872 464.842 259.711 467.254C258.989 467.804 258.267 468.353 257.523 468.92C256.121 469.992 254.722 471.07 253.328 472.154C252.691 472.641 252.055 473.128 251.398 473.629C250.558 474.28 250.558 474.28 249.701 474.944C247.744 476.159 246.292 476.728 244 477C242.208 476.322 242.208 476.322 240.383 475.191C239.701 474.778 239.019 474.365 238.316 473.939C237.593 473.485 236.87 473.031 236.125 472.562C234.586 471.625 233.047 470.689 231.508 469.754C230.362 469.05 230.362 469.05 229.192 468.333C226.162 466.491 223.087 464.744 220 463C209.727 457.148 199.494 451.218 189.438 445C188.57 444.464 187.702 443.927 186.809 443.375C186.212 442.921 185.615 442.467 185 442C185 441.34 185 440.68 185 440C199.332 435.328 213.665 430.66 228 426C228.783 425.745 229.567 425.491 230.374 425.228C247.021 419.818 263.693 414.497 280.411 409.31C286.156 407.525 291.895 405.735 297.595 403.811C300.709 402.761 303.829 401.729 306.949 400.695C308.875 400.056 310.801 399.416 312.727 398.776C314.025 398.345 315.323 397.915 316.621 397.485C323.544 395.192 330.444 392.855 337.301 390.367C342.979 388.324 348.678 386.577 354.5 385C361.981 382.932 369.245 380.592 376.48 377.785C379 377 379 377 381 378Z" fill="#0186EB"/>
<path d="M660.481 445.794C662.762 445.813 665.043 445.815 667.324 445.814C689.422 445.864 689.422 445.864 694.125 449.25C697.332 453.954 697.401 458.382 697 464C694.8 468.6 694.8 468.6 692 470C690.542 470.075 689.08 470.087 687.621 470.066C686.711 470.056 685.802 470.046 684.865 470.036C683.876 470.022 682.887 470.007 681.867 469.992C679.759 469.975 677.651 469.958 675.543 469.941C672.23 469.911 668.918 469.876 665.605 469.829C652.657 469.655 640.62 469.926 628 473C626.512 473.319 625.023 473.638 623.535 473.957C597.462 480.38 572.645 491.777 550.359 506.777C547.583 508.216 546.08 508.542 543 508C541.051 506.355 541.051 506.355 539.312 504.188C538.44 503.126 538.44 503.126 537.551 502.043C535.367 499.166 534.054 497.286 533.375 493.688C534 490 534 490 535.514 488.508C571.522 462.949 616.004 445.424 660.481 445.794Z" fill="#1C2331"/>
<path d="M808.148 401.254C816.898 407.405 821.806 414.223 824.688 424.437C824.791 425.283 824.894 426.129 825 427C825.076 427.61 825.152 428.219 825.23 428.848C825.822 437.654 822.328 446.541 816.938 453.437C809.608 461.04 799.704 464.052 789.438 464.437C779.672 464.386 772.292 460.262 765 454C758.889 447.356 756.43 438.59 755.75 429.75C756.4 420.001 760.653 412.001 767.625 405.312C779.113 395.485 794.761 393.441 808.148 401.254Z" fill="#0285EC"/>
<path d="M514.055 497.461C522.103 501.666 527.185 507.789 531 516C533.628 525.985 532.383 536.211 527.816 545.375C523.022 553.415 515.357 559.027 506.34 561.562C496.566 563.39 488.004 561.65 479.52 556.492C471.474 550.697 465.982 542.778 464 533C462.993 524.274 464.622 515.962 469.75 508.75C481.387 494.533 496.824 490.029 514.055 497.461Z" fill="#0384EC"/>
<path d="M381 378C377.04 380.97 373.08 383.94 369 387C368.67 386.01 368.34 385.02 368 384C366.02 384 364.04 384 362 384C365.219 381.854 368.451 380.602 372.062 379.312C372.7 379.075 373.337 378.837 373.994 378.592C378.759 376.88 378.759 376.88 381 378Z" fill="#088BDE"/>
<path d="M773 401C773.66 401.33 774.32 401.66 775 402C773.214 403.839 771.422 405.672 769.625 407.5C769.117 408.025 768.609 408.549 768.086 409.09C766.762 410.432 765.384 411.72 764 413C763.34 413 762.68 413 762 413C763.503 409.332 765.637 407.311 768.625 404.75C769.851 403.69 769.851 403.69 771.102 402.609C771.728 402.078 772.355 401.547 773 401Z" fill="#1A8DDF"/>
<path d="M379 377C379.66 377.33 380.32 377.66 381 378C378.875 380.062 378.875 380.062 376 382C372.688 381.75 372.688 381.75 370 381C372.938 379.477 375.866 378.072 379 377Z" fill="#1674B2"/>
<path d="M410 383C409.34 385.31 408.68 387.62 408 390C407.67 389.01 407.34 388.02 407 387C405.68 387.33 404.36 387.66 403 388C407.75 383 407.75 383 410 383Z" fill="#147ABF"/>
</svg>
